<svg xmlns="http://www.w3.org/2000/svg" xmlns:xlink="http://www.w3.org/1999/xlink" width="703" height="465" version="1.1" viewBox="0 0 703 465"><title>Desktop HD</title><desc>Created with Sketch.</desc><defs><rect id="path-1" width="131" height="36" x="0" y="0" rx="8"/><rect id="path-2" width="131" height="36" x="0" y="0" rx="8"/><rect id="path-3" width="437" height="144" x="9" y="304"/><mask id="mask-4" width="437" height="144" x="0" y="0" fill="#fff" maskContentUnits="userSpaceOnUse" maskUnits="objectBoundingBox"><use xlink:href="#path-3"/></mask><rect id="path-5" width="123.067" height="40.436" x="0" y="0" rx="8"/><rect id="path-6" width="123.067" height="40.436" x="3.267" y="4.493" rx="8"/><rect id="path-7" width="123.067" height="40.436" x="7.079" y="11.232" rx="8"/><rect id="path-8" width="123.067" height="40.436" x="0" y="0" rx="8"/><rect id="path-9" width="123.067" height="40.436" x="3.267" y="4.493" rx="8"/><rect id="path-10" width="123.067" height="40.436" x="7.079" y="11.232" rx="8"/><rect id="path-11" width="123.067" height="40.436" x="0" y="0" rx="8"/><rect id="path-12" width="123.067" height="40.436" x="3.267" y="4.493" rx="8"/><rect id="path-13" width="123.067" height="40.436" x="7.079" y="11.232" rx="8"/><rect id="path-14" width="97" height="36.191" x="0" y="14.745"/><rect id="path-15" width="97" height="36.191" x="0" y="14.745"/><rect id="path-16" width="131" height="36" x="0" y="0" rx="8"/><rect id="path-17" width="131" height="36" x="0" y="0" rx="8"/><rect id="path-18" width="142.859" height="35.107" x=".141" y="0" rx="8"/><rect id="path-19" width="226" height="36" x="0" y="0" rx="8"/><rect id="path-20" width="226" height="36" x="6" y="4" rx="8"/><rect id="path-21" width="226" height="36" x="13" y="10" rx="8"/><rect id="path-22" width="226" height="36" x="0" y="0" rx="8"/><rect id="path-23" width="226" height="36" x="6" y="4" rx="8"/><rect id="path-24" width="226" height="36" x="13" y="10" rx="8"/><rect id="path-25" width="97" height="36.191" x="0" y="14.745"/></defs><g id="Page-1" fill="none" fill-rule="evenodd" stroke="none" stroke-width="1"><path id="Line" fill="#000" stroke="#000" stroke-linecap="square" d="M84.5,51.5 L240.5,130.5"/><path id="Line-decoration-1" fill="#000" stroke="#000" stroke-linecap="square" d="M240.5,130.5 L232.220366,122.944362 L229.50967,128.29713 L240.5,130.5 Z"/><path id="Line" fill="#000" stroke="#000" stroke-linecap="square" d="M142.5,150.5 L177.5,150.5"/><path id="Line-decoration-1" fill="#000" stroke="#000" stroke-linecap="square" d="M177.5,150.5 L166.7,147.5 L166.7,153.5 L177.5,150.5 Z"/><g id="Desktop-HD"><g id="Client" transform="translate(176.000000, 132.000000)"><g id="Rectangle"><use fill="#C6D4F9" fill-rule="evenodd" xlink:href="#path-1"/><rect width="130" height="35" x=".5" y=".5" stroke="#000" stroke-width="1" rx="8"/></g><text id="Ozone-Client" fill="#000" font-family="Helvetica-Bold, Helvetica" font-size="14" font-weight="bold"><tspan x="24.211" y="24">Ozone Client</tspan></text></g><g id="Handler" transform="translate(35.000000, 18.000000)"><g id="Rectangle-2"><use fill="#E4D6F8" fill-rule="evenodd" xlink:href="#path-2"/><rect width="130" height="35" x=".5" y=".5" stroke="#000" stroke-width="1" rx="8"/></g><text id="Rest-Handler" fill="#000" font-family="Helvetica-Bold, Helvetica" font-size="14" font-weight="bold"><tspan x="22.321" y="22">Rest Handler</tspan></text></g><use id="Rectangle-4" fill="#FFF" stroke="#979797" stroke-dasharray="1 3 1 3" stroke-width="2" mask="url(#mask-4)" xlink:href="#path-3"/><g id="Ratis" transform="translate(315.000000, 378.000000)"><g id="Rectangle-3"><use fill="#C6D4F9" fill-rule="evenodd" xlink:href="#path-5"/><rect width="122.067" height="39.436" x=".5" y=".5" stroke="#000" stroke-width="1" rx="8"/></g><g id="Rectangle-3"><use fill="#C6D4F9" fill-rule="evenodd" xlink:href="#path-6"/><rect width="122.067" height="39.436" x="3.767" y="4.993" stroke="#000" stroke-width="1" rx="8"/></g><g id="Rectangle-3"><use fill="#C6D4F9" fill-rule="evenodd" xlink:href="#path-7"/><rect width="122.067" height="39.436" x="7.579" y="11.732" stroke="#000" stroke-width="1" rx="8"/></g><text fill="#000" font-family="Helvetica-Bold, Helvetica" font-size="14" font-weight="bold"><tspan x="51.383" y="35.964">Ratis</tspan></text></g><g id="Ratis" transform="translate(166.000000, 378.000000)"><g id="Rectangle-3"><use fill="#C6D4F9" fill-rule="evenodd" xlink:href="#path-8"/><rect width="122.067" height="39.436" x=".5" y=".5" stroke="#000" stroke-width="1" rx="8"/></g><g id="Rectangle-3"><use fill="#C6D4F9" fill-rule="evenodd" xlink:href="#path-9"/><rect width="122.067" height="39.436" x="3.767" y="4.993" stroke="#000" stroke-width="1" rx="8"/></g><g id="Rectangle-3"><use fill="#C6D4F9" fill-rule="evenodd" xlink:href="#path-10"/><rect width="122.067" height="39.436" x="7.579" y="11.732" stroke="#000" stroke-width="1" rx="8"/></g><text fill="#000" font-family="Helvetica-Bold, Helvetica" font-size="14" font-weight="bold"><tspan x="51.383" y="35.964">Ratis</tspan></text></g><g id="Ratis" transform="translate(10.000000, 378.000000)"><g id="Rectangle-3"><use fill="#C6D4F9" fill-rule="evenodd" xlink:href="#path-11"/><rect width="122.067" height="39.436" x=".5" y=".5" stroke="#000" stroke-width="1" rx="8"/></g><g id="Rectangle-3"><use fill="#C6D4F9" fill-rule="evenodd" xlink:href="#path-12"/><rect width="122.067" height="39.436" x="3.767" y="4.993" stroke="#000" stroke-width="1" rx="8"/></g><g id="Rectangle-3"><use fill="#C6D4F9" fill-rule="evenodd" xlink:href="#path-13"/><rect width="122.067" height="39.436" x="7.579" y="11.732" stroke="#000" stroke-width="1" rx="8"/></g><text fill="#000" font-family="Helvetica-Bold, Helvetica" font-size="14" font-weight="bold"><tspan x="51.383" y="35.964">Ratis</tspan></text></g><path id="Line" fill="#000" stroke="#000" stroke-linecap="square" d="M240.5,168.5 L240.5,311.5"/><path id="Line-decoration-1" fill="#000" stroke="#000" stroke-linecap="square" d="M240.5,311.5 L243.5,300.7 L237.5,300.7 L240.5,311.5 Z"/><path id="Line" fill="#000" stroke="#000" stroke-linecap="square" d="M243.5,54.5 L243.5,131.5"/><path id="Line-decoration-1" fill="#000" stroke="#000" stroke-linecap="square" d="M243.5,131.5 L246.5,120.7 L240.5,120.7 L243.5,131.5 Z"/><g id="Container" transform="translate(328.000000, 313.000000)"><g id="Rectangle-5"><use fill="#C6D4F9" fill-rule="evenodd" xlink:href="#path-14"/><rect width="96" height="35.191" x=".5" y="15.245" stroke="#000" stroke-width="1"/></g><ellipse id="Oval" cx="48.5" cy="11.394" fill="#C6D4F9" stroke="#000" rx="48.5" ry="11.394"/><ellipse id="Oval" cx="48.5" cy="51.606" fill="#C6D4F9" stroke="#000" rx="48.5" ry="11.394"/><text fill="#000" font-family="Helvetica-Bold, Helvetica" font-size="14" font-weight="bold"><tspan x="14.331" y="37">Container</tspan></text></g><g id="Container" transform="translate(176.000000, 312.000000)"><g id="Rectangle-5"><use fill="#C6D4F9" fill-rule="evenodd" xlink:href="#path-15"/><rect width="96" height="35.191" x=".5" y="15.245" stroke="#000" stroke-width="1"/></g><ellipse id="Oval" cx="48.5" cy="11.394" fill="#C6D4F9" stroke="#000" rx="48.5" ry="11.394"/><ellipse id="Oval" cx="48.5" cy="51.606" fill="#C6D4F9" stroke="#000" rx="48.5" ry="11.394"/><text fill="#000" font-family="Helvetica-Bold, Helvetica" font-size="14" font-weight="bold"><tspan x="14.331" y="37">Container</tspan></text></g><g id="FileSystem" transform="translate(11.000000, 133.000000)"><g id="Rectangle-2"><use fill="#7ED321" fill-rule="evenodd" xlink:href="#path-16"/><rect width="130" height="35" x=".5" y=".5" stroke="#000" stroke-width="1" rx="8"/></g><text id="Ozone-File-System" fill="#000" font-family="Helvetica-Bold, Helvetica" font-size="14" font-weight="bold"><tspan x="3.259" y="22">Ozone File System</tspan></text></g><g id="CLI" transform="translate(179.000000, 18.000000)"><g id="Rectangle-2"><use fill="#E4D6F8" fill-rule="evenodd" xlink:href="#path-17"/><rect width="130" height="35" x=".5" y=".5" stroke="#000" stroke-width="1" rx="8"/></g><text id="Ozone-CLI" fill="#000" font-family="Helvetica-Bold, Helvetica" font-size="14" font-weight="bold"><tspan x="26.39" y="23">Ozone CLI</tspan></text></g><path id="Line" fill="#000" stroke="#000" stroke-linecap="square" d="M333.336323,48.7787611 L248.494492,130.227891"/><path id="Line-decoration-1" fill="#000" stroke="#000" stroke-linecap="square" d="M248.494492,130.227891 L258.363039,124.91265 L254.207822,120.584351 L248.494492,130.227891 Z"/><g id="Corona" transform="translate(325.000000, 17.000000)"><g id="Rectangle-2"><use fill="#E4D6F8" fill-rule="evenodd" xlink:href="#path-18"/><rect width="141.859" height="34.107" x=".641" y=".5" stroke="#000" stroke-width="1" rx="8"/></g><text id="Freon" fill="#000" font-family="Helvetica-Bold, Helvetica" font-size="14" font-weight="bold"><tspan x="50.733" y="22.813">Freon</tspan></text></g><path id="Line" fill="#000" stroke="#000" stroke-linecap="square" d="M307.5,148.5 L433.5,148.5"/><path id="Line-decoration-1" fill="#000" stroke="#000" stroke-linecap="square" d="M433.5,148.5 L422.7,145.5 L422.7,151.5 L433.5,148.5 Z"/><path id="Line" stroke="#000" stroke-dasharray="5 2 5" stroke-linecap="square" stroke-width="2" d="M4,232 L699,232"/><g id="OM" transform="translate(432.000000, 132.000000)"><g id="Rectangle-3"><use fill="#C6D4F9" fill-rule="evenodd" xlink:href="#path-19"/><rect width="225" height="35" x=".5" y=".5" stroke="#000" stroke-width="1" rx="8"/></g><g id="Rectangle-3"><use fill="#C6D4F9" fill-rule="evenodd" xlink:href="#path-20"/><rect width="225" height="35" x="6.5" y="4.5" stroke="#000" stroke-width="1" rx="8"/></g><g id="Rectangle-3"><use fill="#C6D4F9" fill-rule="evenodd" xlink:href="#path-21"/><rect width="225" height="35" x="13.5" y="10.5" stroke="#000" stroke-width="1" rx="8"/></g><text id="Ozone-Manager" fill="#000" font-family="Helvetica-Bold, Helvetica" font-size="14" font-weight="bold"><tspan x="67.379" y="32">Ozone Manager</tspan></text></g><g id="SCM" transform="translate(450.000000, 281.000000)"><g id="Rectangle-3"><use fill="#C6D4F9" fill-rule="evenodd" xlink:href="#path-22"/><rect width="225" height="35" x=".5" y=".5" stroke="#000" stroke-width="1" rx="8"/></g><g id="Rectangle-3"><use fill="#C6D4F9" fill-rule="evenodd" xlink:href="#path-23"/><rect width="225" height="35" x="6.5" y="4.5" stroke="#000" stroke-width="1" rx="8"/></g><g id="Rectangle-3"><use fill="#C6D4F9" fill-rule="evenodd" xlink:href="#path-24"/><rect width="225" height="35" x="13.5" y="10.5" stroke="#000" stroke-width="1" rx="8"/></g><text id="Storage-Container-Manager" fill="#000" font-family="Helvetica-Bold, Helvetica" font-size="14" font-weight="bold"><tspan x="28.093" y="32">Storage Container Manager</tspan></text></g><path id="Line" fill="#000" stroke="#000" stroke-linecap="square" d="M534.5,178.5 L534.5,283.5"/><path id="Line-decoration-1" fill="#000" stroke="#000" stroke-linecap="square" d="M534.5,283.5 L537.5,272.7 L531.5,272.7 L534.5,283.5 Z"/><text id="Datanodes" fill="#000" font-family="Helvetica-Bold, Helvetica" font-size="14" font-weight="bold"><tspan x="196.214" y="462">Datanodes</tspan></text><g id="Container" transform="translate(15.000000, 311.000000)"><g id="Rectangle-5"><use fill="#C6D4F9" fill-rule="evenodd" xlink:href="#path-25"/><rect width="96" height="35.191" x=".5" y="15.245" stroke="#000" stroke-width="1"/></g><ellipse id="Oval" cx="48.5" cy="11.394" fill="#C6D4F9" stroke="#000" rx="48.5" ry="11.394"/><ellipse id="Oval" cx="48.5" cy="51.606" fill="#C6D4F9" stroke="#000" rx="48.5" ry="11.394"/><text fill="#000" font-family="Helvetica-Bold, Helvetica" font-size="14" font-weight="bold"><tspan x="14.331" y="37">Container</tspan></text></g><path id="Line" stroke="#979797" stroke-linecap="square" d="M84.5,137.5 L86,139"/><text id="Hadoop-Distributed-D" fill="#000" font-family="Helvetica-Bold, Helvetica" font-size="20" font-weight="bold"><tspan x="205.434" y="230">Hadoop Distributed Data Store</tspan></text></g></g></svg>